# xmcd
#
# Track frame offsets: 
#        150
#        14557
#        27818
#        42714
#        60198
#        81848
#        102564
#        105570
#        108567
#        109994
#
# Disc length: 1473 seconds
#
# Revision: 5
# Processed by: cddbd v1.5.2PL0 Copyright (c) Steve Scherf et al.
# Submitted via: ExactAudioCopyFreeDBPlugin 1.0
#
DISCID=8105bf0a
DTITLE=The Pussycat Dolls - PCD (Tour Edition) [CD2]
DYEAR=2006
DGENRE=R&B
TTITLE0=Sway
TTITLE1=Flirt
TTITLE2=Stickwitu (Avant Mix)
TTITLE3=Buttons Feat. Snoop Dogg
TTITLE4=Don't Cha (More Booty) Feat. Busta Rhymes
TTITLE5=Hot Stuff (I Want You Back) (Remix)
TTITLE6=He Always Answers (Ringback Tone)
TTITLE7=Vibrate Off The Table (Ringtone)
TTITLE8=Freaky Fun (Voicemail ID)
TTITLE9=PCD (Text Alert)
EXTD=YEAR: 2006
EXTT0=
EXTT1=
EXTT2=
EXTT3=
EXTT4=
EXTT5=
EXTT6=
EXTT7=
EXTT8=
EXTT9=
PLAYORDER=
